# xmcd
#
# Track frame offsets:
#	150
#	3457
#	10847
#	23272
#	36069
#	58747
#	59769
#	69091
#	89288
#	108848
#	109948
#	117603
#	139004
#	156055
#	163836
#
# Disc length: 3506 seconds
#
# Revision: 1
# Processed by: cddbd v1.5.2PL0 Copyright (c) Steve Scherf et al.
# Submitted via: EasyCDDAExtractor 5.0.6
#
DISCID=bd0db00f
DTITLE=Sean Walsh Band - Velvet Sessions
DYEAR=2006
DGENRE=Blues
TTITLE0=Mr Pansy Pants
TTITLE1=Mr Cranky Pants
TTITLE2=Monkey Business
TTITLE3=Bridges
TTITLE4=Lochstreet Rain
TTITLE5=Pre Jazz
TTITLE6=Jazz
TTITLE7=Leisure Time
TTITLE8=Night and Day
TTITLE9=The Devil Speaks
TTITLE10=Chasing the Devil
TTITLE11=Suitcase Blues
TTITLE12=Failure
TTITLE13=Atlantis
TTITLE14=The Overlook
EXTD=
EXTT0=
EXTT1=
EXTT2=
EXTT3=
EXTT4=
EXTT5=
EXTT6=
EXTT7=
EXTT8=
EXTT9=
EXTT10=
EXTT11=
EXTT12=
EXTT13=
EXTT14=
PLAYORDER=
